<svg fill="#de3f24" xmlns="http://www.w3.org/2000/svg"  viewBox="0 0 64 64" width="500px" height="500px"><path d="M 34.507812 7.0605469 L 23.744141 11.009766 L 13.742188 20.330078 L 7 31.90625 L 7 45.603516 A 2.0002 2.0002 0 0 0 7 45.744141 L 7 45.767578 A 2.0002 2.0002 0 0 0 7.03125 46.132812 C 7.2695982 50.89005 9.3181479 53.929079 11.810547 55.384766 C 14.107531 56.726319 16.483541 56.859511 17.951172 56.902344 A 2.0002 2.0002 0 0 0 18.509766 56.931641 L 54.242188 54.507812 L 56.888672 19.882812 C 56.918196 19.617564 56.931468 19.349874 56.949219 19.082031 L 56.994141 18.492188 A 2.0002 2.0002 0 0 0 56.984375 18.058594 C 56.988913 16.910239 56.880959 15.751759 56.587891 14.613281 C 55.714902 11.222 52.908803 8.1709919 48.173828 7.2890625 A 2.0002 2.0002 0 0 0 47.830078 7.2285156 A 2.0002 2.0002 0 0 0 47.566406 7.2128906 A 2.0002 2.0002 0 0 0 47.53125 7.2148438 L 34.507812 7.0605469 z M 35.130859 11.091797 L 38.943359 13.757812 L 35.654297 24.203125 L 22.984375 35.978516 L 13.880859 38.212891 L 11.003906 32.978516 L 16.902344 22.853516 L 25.880859 14.486328 L 35.130859 11.091797 z M 40.419922 11.130859 L 47.40625 11.214844 C 50.984654 11.854883 52.148283 13.410419 52.714844 15.611328 C 53.077919 17.021759 53.029983 18.758849 52.736328 20.480469 L 41.787109 12.146484 C 41.716858 12.071341 41.651205 11.992335 41.564453 11.931641 L 40.419922 11.130859 z M 41.4375 15.824219 L 49.089844 22.384766 L 39.068359 23.351562 L 41.4375 15.824219 z M 51.056641 26.033203 C 49.065193 30.798099 45.982139 35.003212 42.425781 39.003906 L 38.945312 26.486328 L 51.056641 26.033203 z M 36.083984 27.902344 L 38.775391 40.109375 L 26.728516 36.595703 L 36.083984 27.902344 z M 51.861328 33.171875 L 50.662109 48.851562 L 44.359375 42.855469 C 47.115124 39.855921 49.712978 36.676597 51.861328 33.171875 z M 11 39.201172 L 11.728516 40.527344 L 15.703125 52.625 C 15.045763 52.480496 14.40026 52.265796 13.828125 51.931641 C 12.380763 51.086308 11.112138 49.662641 11 45.632812 L 11 39.201172 z M 24.847656 39.257812 L 37.609375 43.742188 C 32.779886 47.910325 27.580818 51.207904 21.230469 52.46875 L 24.847656 39.257812 z M 21.541016 39.421875 L 18.349609 48.990234 L 15.150391 40.990234 L 21.541016 39.421875 z M 41.558594 45.546875 L 48.044922 50.917969 L 33.208984 51.925781 C 36.225515 50.091083 38.971516 47.884807 41.558594 45.546875 z"/></svg>